<?xml version="1.0" standalone="no"?>
<!DOCTYPE svg PUBLIC "-//W3C//DTD SVG 20010904//EN"
 "http://www.w3.org/TR/2001/REC-SVG-20010904/DTD/svg10.dtd">
<svg version="1.0" xmlns="http://www.w3.org/2000/svg"
 width="400.000000pt" height="400.000000pt" viewBox="0 0 400.000000 400.000000"
 preserveAspectRatio="xMidYMid meet">

<g transform="translate(0.000000,400.000000) scale(0.100000,-0.100000)"
fill="currentColor" stroke="none">
<path d="M11 3986 c-16 -19 -16 -3953 0 -3973 17 -20 3961 -20 3978 1 8 9 10
190 9 657 l-3 644 -1003 5 -1003 5 1 662 c0 444 -3 664 -10 668 -6 4 -8 11 -5
16 4 5 403 9 1016 9 l1009 0 0 649 c0 532 -2 651 -13 660 -10 8 -547 11 -1989
11 -1645 0 -1977 -2 -1987 -14z m879 -324 c41 -32 81 -62 88 -66 8 -5 45 17
101 58 l89 66 218 -2 219 -3 3 -324 c2 -233 -1 -327 -9 -337 -10 -12 -53 -14
-228 -12 l-216 3 -3 162 -2 162 -80 -60 c-51 -40 -83 -58 -92 -53 -7 4 -43 32
-80 61 l-68 53 -2 -162 -3 -163 -225 0 -225 0 -3 325 c-1 179 0 330 3 337 3
10 56 13 222 13 l217 0 76 -58z m2450 -19 c178 -334 307 -589 301 -596 -4 -4
-106 -6 -227 -5 l-219 3 -28 53 -28 52 -159 0 -159 0 -28 -52 -28 -53 -218 -3
c-173 -2 -219 0 -223 11 -2 7 38 94 89 193 52 98 129 245 171 327 l77 147 319
0 319 0 41 -77z m-1996 -1268 c49 -8 93 -18 97 -21 9 -5 -73 -177 -98 -206
-14 -16 -17 -16 -49 8 -50 38 -128 64 -196 65 -107 2 -103 -37 8 -65 131 -33
252 -77 291 -105 51 -37 77 -97 67 -155 -5 -30 -18 -53 -53 -87 -54 -54 -128
-82 -261 -100 -168 -23 -580 7 -618 45 -11 11 -4 32 42 125 l56 111 45 -35
c45 -34 155 -75 200 -75 32 0 75 17 75 29 0 16 -46 36 -149 65 -119 34 -158
54 -204 105 -31 35 -37 48 -37 87 0 53 16 87 62 131 52 50 127 76 273 97 64 9
364 -3 449 -19z m886 -1326 c73 -11 196 -45 204 -57 2 -4 -38 -62 -90 -129
l-95 -120 -42 8 c-59 11 -211 11 -241 -1 -30 -11 -33 -31 -9 -51 18 -16 191
-20 255 -6 37 8 38 7 82 -50 25 -32 68 -91 96 -131 l52 -72 -36 -15 c-116 -49
-434 -71 -576 -41 -333 71 -464 336 -262 531 133 130 369 177 662 134z m-1231
-3 c8 -9 11 -107 9 -337 l-3 -324 -225 0 -225 0 -3 325 c-1 179 0 330 3 337 7
20 428 18 444 -1z m2089 -100 l3 -109 46 7 c85 11 146 67 158 145 11 69 -1 66
246 66 l224 0 -2 -63 c-2 -87 -37 -156 -114 -226 l-60 -54 35 -21 c79 -49 161
-179 168 -266 l3 -40 -234 -3 c-150 -1 -238 1 -246 8 -7 6 -15 28 -18 50 -8
63 -50 125 -99 148 -24 11 -57 22 -75 26 l-32 5 -3 -117 -3 -117 -165 0 -165
0 -3 325 c-1 179 0 331 3 338 3 10 42 12 167 10 l163 -3 3 -109z"/>
<path d="M2951 3401 c-18 -35 -30 -65 -28 -68 3 -2 32 -3 65 -1 l60 3 -33 65
-32 64 -32 -63z"/>
<path d="M2835 2350 c-128 -21 -222 -66 -251 -122 -25 -48 -24 -120 2 -155 28
-38 103 -74 223 -107 117 -33 156 -62 127 -95 -24 -26 -67 -33 -129 -20 -58
13 -136 49 -156 73 -8 9 -17 16 -22 16 -5 0 -31 -44 -58 -98 l-49 -98 56 -12
c185 -38 533 -42 657 -8 142 39 195 89 195 183 0 47 -4 56 -37 91 -39 41 -74
54 -309 122 -39 11 -78 28 -87 38 -15 16 -15 20 -1 40 13 19 25 22 77 22 79 0
119 -11 187 -53 l55 -33 48 90 c26 49 45 92 42 94 -27 27 -449 50 -570 32z"/>
</g>
</svg>
