<?xml version="1.0" standalone="no"?>
<!DOCTYPE svg PUBLIC "-//W3C//DTD SVG 20010904//EN"
 "http://www.w3.org/TR/2001/REC-SVG-20010904/DTD/svg10.dtd">
<svg version="1.0" xmlns="http://www.w3.org/2000/svg"
 width="400.000000pt" height="600.000000pt" viewBox="0 0 400.000000 600.000000"
 preserveAspectRatio="xMidYMid meet">

<g transform="translate(0.000000,600.000000) scale(0.100000,-0.100000)"
fill="currentColor" stroke="none">
<path d="M17 5982 c-16 -17 -17 -239 -17 -2987 0 -2172 3 -2972 11 -2982 10
-11 344 -13 1994 -13 1799 0 1983 1 1989 16 3 9 6 451 6 983 0 925 -1 969 -18
984 -17 16 -101 17 -1003 17 l-984 0 3 982 c2 905 1 983 -14 1000 -10 10 -13
18 -8 18 5 0 460 0 1010 0 908 0 1002 1 1008 16 3 8 6 451 6 983 0 925 -1 969
-18 984 -17 16 -100 17 -993 17 -745 0 -978 -3 -987 -12 -9 -9 -15 -9 -24 0
-9 9 -240 12 -978 12 -924 0 -968 -1 -983 -18z m880 -502 c48 -55 91 -99 94
-98 4 2 46 47 93 101 l87 97 217 -2 217 -3 0 -500 0 -500 -225 0 -225 0 -5
239 -5 239 -74 -86 c-40 -48 -77 -87 -81 -87 -5 0 -42 39 -82 86 l-73 86 -5
-239 -5 -238 -225 0 -225 0 -3 490 c-1 270 0 496 3 503 3 9 57 12 219 12 l215
0 88 -100z m2577 -400 c95 -272 171 -498 169 -502 -2 -5 -102 -8 -222 -8 -163
0 -221 3 -229 13 -5 6 -20 45 -33 85 l-23 72 -156 -2 -155 -3 -25 -70 c-14
-39 -29 -76 -33 -83 -12 -18 -436 -17 -443 1 -5 14 321 963 338 985 8 9 81 12
325 10 l315 -3 172 -495z m-2142 -1518 c131 -35 125 -19 66 -190 -28 -81 -54
-151 -59 -156 -5 -6 -29 10 -59 38 -63 59 -120 85 -186 86 -55 0 -74 -12 -74
-48 0 -25 32 -42 202 -112 173 -71 243 -155 242 -294 -1 -160 -98 -268 -281
-313 -93 -22 -336 -22 -458 1 -94 18 -184 43 -198 56 -9 8 88 326 102 334 4 3
29 -17 55 -44 86 -89 214 -130 249 -79 29 40 11 58 -127 124 -202 96 -254 164
-244 320 5 80 23 119 81 182 56 61 105 85 242 117 11 3 99 3 195 2 138 -3 191
-8 252 -24z m923 -1996 c63 -18 185 -71 185 -81 0 -8 -167 -328 -182 -347 -12
-16 -18 -16 -73 -3 -110 27 -225 12 -241 -30 -12 -29 5 -62 38 -76 43 -18 170
-15 226 5 l42 15 95 -190 c53 -104 93 -194 90 -198 -11 -18 -122 -63 -204 -83
-103 -25 -279 -29 -361 -9 -170 42 -316 171 -372 328 -42 122 -33 282 24 402
58 121 200 237 339 276 72 20 309 15 394 -9z m-1250 -491 l0 -500 -225 0 -225
0 -3 490 c-1 270 0 496 3 503 3 10 55 12 227 10 l223 -3 0 -500z m2083 338 c2
-147 4 -163 20 -163 27 1 95 35 119 61 35 38 65 118 71 186 2 34 10 67 17 73
8 7 92 9 231 8 l219 -3 -2 -90 c-4 -153 -55 -284 -145 -372 l-37 -36 54 -59
c87 -94 150 -249 157 -388 l3 -55 -240 0 -240 0 -6 25 c-4 14 -12 56 -17 93
-19 130 -82 215 -169 233 l-33 6 -2 -178 -3 -179 -165 0 -165 0 -3 490 c-1
270 0 496 3 503 3 10 43 12 167 10 l163 -3 3 -162z"/>
<path d="M2943 5085 l-31 -95 68 0 68 0 -31 95 c-17 52 -34 95 -37 95 -3 0
-20 -43 -37 -95z"/>
<path d="M2884 3538 c-3 -4 -11 -5 -19 -1 -8 3 -23 2 -32 -3 -10 -4 -21 -8
-25 -9 -5 -2 -10 -4 -13 -5 -3 -1 -9 -4 -15 -5 -5 -1 -11 -3 -12 -5 -2 -1 -10
-3 -20 -5 -9 -1 -29 -12 -45 -23 -15 -10 -40 -27 -55 -36 -16 -9 -28 -22 -28
-30 0 -7 -8 -21 -19 -30 -25 -22 -41 -86 -41 -163 0 -22 6 -76 10 -83 1 -3 2
-9 1 -14 -1 -5 6 -18 17 -30 10 -11 26 -34 36 -49 9 -15 21 -25 26 -22 5 3 12
-1 17 -8 12 -19 74 -55 105 -61 14 -2 39 -13 54 -23 16 -10 29 -17 31 -15 17
14 71 -36 83 -76 7 -27 5 -33 -18 -48 -21 -14 -86 -22 -107 -14 -3 2 -8 3 -12
4 -5 0 -26 12 -48 26 -22 14 -44 27 -50 29 -17 7 -61 55 -68 74 -4 10 -12 15
-18 12 -6 -4 -8 -13 -5 -20 2 -7 2 -16 -2 -20 -4 -4 -8 -11 -8 -16 -1 -5 -3
-11 -4 -14 -1 -3 -4 -9 -5 -15 -1 -5 -4 -12 -5 -15 -1 -3 -4 -9 -5 -15 -1 -5
-4 -12 -5 -15 -1 -3 -4 -9 -5 -15 -1 -5 -4 -12 -5 -15 -1 -3 -4 -9 -5 -15 -1
-5 -4 -12 -5 -15 -1 -3 -4 -9 -5 -15 -1 -5 -4 -12 -5 -15 -1 -3 -3 -8 -5 -12
-1 -5 -7 -21 -14 -37 -11 -28 -7 -66 6 -53 3 4 12 2 20 -4 7 -6 13 -8 13 -4 0
4 7 2 15 -5 8 -7 15 -9 15 -5 0 4 7 2 15 -5 9 -7 18 -10 22 -7 3 4 12 2 19 -4
8 -6 20 -9 29 -6 8 4 17 1 21 -4 3 -6 19 -8 35 -5 15 3 31 1 35 -5 3 -6 26 -8
59 -4 34 5 55 3 59 -4 9 -14 123 -14 132 0 4 7 22 9 49 4 25 -3 46 -2 49 4 4
6 13 8 21 4 9 -3 22 0 30 7 8 7 15 9 15 5 0 -4 7 -2 15 5 8 7 15 9 15 5 0 -4
7 -2 15 5 8 7 15 9 15 5 0 -3 12 3 26 14 15 11 30 18 35 15 5 -3 9 0 9 6 0 6
11 15 25 20 14 5 28 18 32 27 3 10 12 25 20 35 8 9 16 25 18 35 2 10 4 19 5
21 2 1 3 6 4 11 0 5 4 13 9 17 12 12 8 129 -5 142 -7 7 -8 12 -4 12 4 0 -2 15
-13 33 -11 19 -18 36 -15 39 3 3 -14 22 -37 42 -23 20 -45 34 -47 31 -3 -3
-35 11 -71 31 -36 20 -67 36 -69 35 -1 -1 -16 6 -32 14 -17 9 -30 13 -30 9 0
-4 -6 -1 -14 5 -8 7 -24 14 -37 16 -19 4 -77 60 -79 76 0 3 11 16 25 29 19 18
35 23 75 22 27 0 52 -2 55 -3 3 -1 8 -2 13 -3 4 -1 18 -8 32 -16 14 -8 28 -14
31 -15 15 0 89 -67 89 -80 0 -8 5 -17 10 -20 6 -4 10 -3 9 2 -1 4 0 11 1 16 1
4 4 12 5 17 1 6 4 12 5 15 1 3 4 10 5 15 1 6 4 12 5 15 1 3 4 10 5 15 1 6 4
12 5 15 1 3 3 8 4 13 1 4 7 17 14 29 6 12 13 30 15 40 1 10 6 24 10 31 5 6 5
12 1 12 -3 0 -1 7 6 15 7 8 9 15 5 15 -4 0 -2 6 4 14 9 10 7 17 -5 27 -10 8
-20 13 -23 13 -3 -1 -17 3 -30 8 -14 5 -30 7 -37 4 -8 -3 -16 -1 -20 5 -3 6
-12 8 -20 5 -7 -3 -16 0 -20 5 -3 6 -19 9 -34 5 -15 -3 -31 -2 -35 2 -9 9
-295 10 -301 0z"/>
</g>
</svg>
