<svg fill="none" viewBox="0 0 32 29" xmlns="http://www.w3.org/2000/svg"><path fill-rule="evenodd" clip-rule="evenodd" d="M11.405 2.317a21.514 21.514 0 0 1 2.26-.293c.172-.013.291-.042.365-.162.125-.203.347-.281.656-.304a17.353 17.353 0 0 1 2.491-.01c.402.028.67.13.825.395.06.104.165.142.322.154.327.023.653.058.977.101.422.056.839.128 1.276.2a2.74 2.74 0 0 0-.325-.682C19.747.91 18.937.36 17.732.136c-.905-.168-1.82-.153-2.739-.1A5.398 5.398 0 0 0 13.36.38c-1.066.41-1.59 1.11-1.955 1.937ZM.634 3.055a3.92 3.92 0 0 1 1.009.563c.67.513 1.132 1.125 1.56 1.751.474.696.849 1.423 1.201 2.159.07-.043.075-.094.09-.143.18-.582.391-1.159.662-1.723.48-1 1.121-1.925 2.29-2.604.117-.068.108-.116.021-.196a7.193 7.193 0 0 0-1.236-.941 2.381 2.381 0 0 0-1.274-.32c-1.057.018-2.02.267-2.931.633-.525.211-1.014.458-1.392.821Zm13.91-.722-.11.016c-.016-.004-.033-.012-.049-.011-1.384.076-2.759.198-4.092.496-1.429.32-2.531.942-3.297 1.875-.61.743-.944 1.564-1.248 2.39-.317.864-.538 1.744-.734 2.626-.317 1.423-.558 2.855-.784 4.287-.163 1.044-.314 2.09-.453 3.138-.202 1.487-.38 2.974-.394 4.47-.012 1.312.028 2.62.586 3.888.365.83.995 1.513 2.054 1.968 1.098.472 2.299.727 3.529.918 1.822.284 3.673.378 5.53.4 1.997.022 3.993-.013 5.974-.222 1.452-.154 2.877-.387 4.224-.828 1.226-.4 2.12-1.023 2.606-1.95.483-.919.648-1.878.705-2.848.127-2.192-.165-4.37-.472-6.546-.225-1.597-.469-3.192-.764-4.784a41.402 41.402 0 0 0-.625-2.91c-.292-1.12-.64-2.229-1.24-3.287-.733-1.29-1.965-2.201-3.836-2.592-2.324-.485-4.704-.603-7.11-.494Zm14.641 13.495c.001.128.007.255.051.378l.148 1.022c-.021.064-.01.125.032.208.035-.086.11-.135.086-.206l.448-1.599c.031-.059.06-.118.044-.182.087-.146.107-.304.16-.456.326-.92.547-1.856.756-2.793.23-1.031.427-2.066.683-3.094.313-1.264.454-2.535.393-3.816-.023-.474-.054-.952-.229-1.444-.146.083-.274.145-.386.22-.515.348-.88.777-1.208 1.22-.932 1.266-1.537 2.623-2.103 3.991-.028.07-.012.136.005.205.292 1.24.505 2.49.705 3.74.14.868.277 1.737.415 2.607ZM.09 4.178c-.093.272-.088.55-.089.826-.003 1.256.185 2.5.41 3.744.197 1.08.47 2.15.735 3.222.256 1.04.522 2.078.8 3.113.267.986.363 1.983.464 2.981.008.073-.01.152.06.224.014-.02.031-.035.033-.05.182-1.463.39-2.923.626-4.377.23-1.419.449-2.838.773-4.247.042-.184.095-.364 0-.557-.188-.378-.329-.768-.509-1.148C2.916 6.903 2.41 5.906 1.65 4.99c-.307-.37-.626-.74-1.118-1.005-.112-.07-.234-.193-.367-.15-.111.037-.07.189-.092.29-.004.017.01.036.016.053Zm29.664-1.995a9.576 9.576 0 0 0-3.238-.535c-.318 0-.63.092-.898.264-.456.292-.774.658-1.045 1.049-.056.08.004.112.074.154.31.185.6.404.862.653.901.858 1.362 1.857 1.742 2.88.116.313.22.628.342.98.372-.766.732-1.493 1.204-2.187.573-.843 1.19-1.665 2.265-2.242l.14-.065.12-.049c.113-.03.045-.059 0-.089-.021-.064-.08-.108-.148-.148a.566.566 0 0 0-.253-.175 3.25 3.25 0 0 0-.794-.373c-.12-.047-.229-.112-.373-.117Z" fill="currentColor"></path></svg>